<?xml version="1.0" standalone="no"?>
<!DOCTYPE svg PUBLIC "-//W3C//DTD SVG 20010904//EN"
 "http://www.w3.org/TR/2001/REC-SVG-20010904/DTD/svg10.dtd">
<svg version="1.0" xmlns="http://www.w3.org/2000/svg"
 width="512.000000pt" height="512.000000pt" viewBox="0 0 512.000000 512.000000"
 preserveAspectRatio="xMidYMid meet">
<metadata>
Created by potrace 1.16, written by Peter Selinger 2001-2019
</metadata>
<g transform="translate(0.000000,512.000000) scale(0.100000,-0.100000)"
fill="#000000" stroke="none">
<path d="M2111 5100 c-119 -43 -207 -123 -264 -239 -30 -63 -32 -73 -35 -203
l-4 -138 -550 0 c-607 0 -580 3 -626 -64 -31 -45 -30 -127 1 -173 46 -68 -107
-63 1934 -63 1793 0 1849 1 1877 19 46 31 66 69 66 131 0 62 -20 100 -66 131
-28 18 -57 19 -581 19 l-551 0 -4 138 c-3 132 -5 140 -37 207 -45 92 -124 171
-216 216 l-70 34 -410 2 c-385 3 -413 2 -464 -17z m817 -305 c56 -34 74 -75
80 -181 l5 -94 -453 0 -453 0 5 94 c7 127 37 175 123 197 17 4 172 7 345 6
295 -2 317 -3 348 -22z"/>
<path d="M2560 3465 l0 -455 -27 0 c-35 0 -79 -29 -104 -66 -18 -28 -19 -65
-19 -984 0 -919 1 -956 19 -984 25 -37 69 -66 104 -66 l27 0 0 -455 0 -455
778 0 c744 0 778 1 806 19 15 10 37 32 47 47 18 28 19 84 19 1894 0 1810 -1
1866 -19 1894 -10 15 -32 37 -47 47 -28 18 -62 19 -806 19 l-778 0 0 -455z"/>
<path d="M1576 2991 c-15 -10 -37 -32 -47 -47 -18 -28 -19 -65 -19 -984 0
-919 1 -956 19 -984 31 -46 69 -66 131 -66 62 0 100 20 131 66 18 28 19 65 19
984 0 919 -1 956 -19 984 -31 46 -69 66 -131 66 -37 0 -64 -6 -84 -19z"/>
</g>
</svg>
